<svg xmlns="http://www.w3.org/2000/svg" width="445" height="445" viewBox="0 0 445 445">
  <g id="Group_50" data-name="Group 50" transform="translate(-1196 -675)">
    <rect id="Rectangle_31" data-name="Rectangle 31" width="445" height="445" transform="translate(1196 675)" fill="#fff"/>
    <g id="undraw_page_not_found_su7k" transform="translate(1231.266 769.056)">
      <ellipse id="Ellipse_34" data-name="Ellipse 34" cx="182.543" cy="12.085" rx="182.543" ry="12.085" transform="translate(4.549 178.005)" fill="#f8f8f8"/>
      <path id="Path_40" data-name="Path 40" d="M486.924,324.894c-29.741,0-51.1,19.081-51.1,63.6,0,50.459,21.354,63.816,51.1,63.816s52.367-14.629,52.367-63.816C539.291,335.919,516.665,324.894,486.924,324.894Zm.2,110.671c-20.6,0-31.361-12.085-31.361-47.034,0-30.837,11.2-47.1,31.8-47.1s31.8,10.682,31.8,47.1C519.362,422.6,507.719,435.565,487.119,435.565Z" transform="translate(-306.829 -267.1)" fill="#a89f9f"/>
      <path id="Path_41" data-name="Path 41" d="M210.084,426.581h-12.3V390.37a7.252,7.252,0,0,0-7.252-7.252h-2.881a7.252,7.252,0,0,0-7.252,7.252v36.211H145.717a4.14,4.14,0,0,1-3.66-6.074l36.71-69.481a7.252,7.252,0,0,0-3.315-9.945l-2.167-1.023a7.252,7.252,0,0,0-9.492,3.139L119.02,426.953a9.833,9.833,0,0,0-1.161,4.636h0a9.833,9.833,0,0,0,9.833,9.833H180.4v22.9a8.692,8.692,0,0,0,8.693,8.693h0a8.692,8.692,0,0,0,8.692-8.693v-22.9h12.3A7.42,7.42,0,0,0,217.5,434h0a7.42,7.42,0,0,0-7.42-7.42Z" transform="translate(-98.893 -276.561)" fill="#b03e30"/>
      <path id="Path_42" data-name="Path 42" d="M868.08,426.581h-12.3V390.37a7.252,7.252,0,0,0-7.252-7.252H845.65a7.252,7.252,0,0,0-7.252,7.252v36.211H803.714a4.14,4.14,0,0,1-3.66-6.074l36.71-69.481a7.252,7.252,0,0,0-3.315-9.945l-2.167-1.023a7.252,7.252,0,0,0-9.492,3.139l-44.773,83.756a9.834,9.834,0,0,0-1.161,4.636h0a9.833,9.833,0,0,0,9.833,9.833H838.4v22.9a8.692,8.692,0,0,0,8.692,8.693h0a8.693,8.693,0,0,0,8.692-8.693v-22.9h12.3A7.42,7.42,0,0,0,875.5,434h0a7.42,7.42,0,0,0-7.421-7.42Z" transform="translate(-529.188 -276.561)" fill="#b03e30"/>
      <path id="Path_43" data-name="Path 43" d="M219.886,414.328h-12.3V378.117a7.252,7.252,0,0,0-7.252-7.252h-2.881a7.252,7.252,0,0,0-7.252,7.252v36.211H155.52a4.14,4.14,0,0,1-3.66-6.074l36.71-69.481a7.252,7.252,0,0,0-3.315-9.945l-2.167-1.023a7.252,7.252,0,0,0-9.492,3.139L128.822,414.7a9.833,9.833,0,0,0-1.161,4.636h0a9.833,9.833,0,0,0,9.833,9.833H190.2v22.9a8.692,8.692,0,0,0,8.692,8.693h0a8.692,8.692,0,0,0,8.692-8.693v-22.9h12.3a7.42,7.42,0,0,0,7.42-7.42h0A7.42,7.42,0,0,0,219.886,414.328Z" transform="translate(-105.303 -268.549)" fill="none" stroke="#332e2a" stroke-miterlimit="10" stroke-width="1"/>
      <path id="Path_44" data-name="Path 44" d="M886.46,414.328h-12.3V378.117a7.252,7.252,0,0,0-7.252-7.252H864.03a7.252,7.252,0,0,0-7.252,7.252v36.211H822.093a4.14,4.14,0,0,1-3.66-6.074l36.71-69.48a7.252,7.252,0,0,0-3.315-9.945l-2.167-1.023a7.252,7.252,0,0,0-9.492,3.139L795.4,414.7a9.833,9.833,0,0,0-1.161,4.636h0a9.833,9.833,0,0,0,9.833,9.833h52.71v22.9a8.692,8.692,0,0,0,8.692,8.693h0a8.692,8.692,0,0,0,8.692-8.693v-22.9h12.3a7.42,7.42,0,0,0,7.42-7.42h0A7.42,7.42,0,0,0,886.46,414.328Z" transform="translate(-541.207 -268.548)" fill="none" stroke="#332e2a" stroke-miterlimit="10" stroke-width="1"/>
      <path id="Path_45" data-name="Path 45" d="M506.529,313.866c-29.741,0-51.1,19.081-51.1,63.6,0,50.459,21.354,63.816,51.1,63.816S558.9,426.657,558.9,377.47C558.9,324.891,536.27,313.866,506.529,313.866Zm.2,110.671c-20.6,0-31.361-12.085-31.361-47.034,0-30.837,11.2-47.1,31.8-47.1s31.8,10.682,31.8,47.1C538.967,411.571,527.324,424.537,506.724,424.537Z" transform="translate(-319.649 -259.888)" fill="none" stroke="#332e2a" stroke-miterlimit="10" stroke-width="1"/>
    </g>
  </g>
</svg>
