<svg xmlns="http://www.w3.org/2000/svg" width="113.748" height="118.444" viewBox="0 0 113.748 118.444">
  <g id="Group_49" data-name="Group 49" transform="translate(-428.182 -875.556)">
    <path id="Path_29" data-name="Path 29" d="M9485,878.056l51.265,21.337V908.3H9432.736v-8.911Z" transform="translate(-9000)" fill="none" stroke="#b03e30" stroke-linecap="round" stroke-linejoin="round" stroke-width="5"/>
    <path id="Path_30" data-name="Path 30" d="M9440.278,908.3H9457.9v8.166h-3.744v50.415h-10.306V916.47h-3.574Z" transform="translate(-9000)" fill="none" stroke="#b03e30" stroke-linecap="round" stroke-linejoin="round" stroke-width="5"/>
    <path id="Path_31" data-name="Path 31" d="M9440.278,908.3H9457.9v8.166h-3.744v50.415h-10.306V916.47h-3.574Z" transform="translate(-8982)" fill="none" stroke="#b03e30" stroke-linecap="round" stroke-linejoin="round" stroke-width="5"/>
    <path id="Path_32" data-name="Path 32" d="M9440.278,908.3H9457.9v8.166h-3.744v50.415h-10.306V916.47h-3.574Z" transform="translate(-8964)" fill="none" stroke="#b03e30" stroke-linecap="round" stroke-linejoin="round" stroke-width="5"/>
    <path id="Path_33" data-name="Path 33" d="M9440.278,908.3H9457.9v8.166h-3.744v50.415h-10.306V916.47h-3.574Z" transform="translate(-8946)" fill="none" stroke="#b03e30" stroke-linecap="round" stroke-linejoin="round" stroke-width="5"/>
    <path id="Path_34" data-name="Path 34" d="M9440.278,908.3H9457.9v8.166h-3.744v50.415h-10.306V916.47h-3.574Z" transform="translate(-8928)" fill="none" stroke="#b03e30" stroke-linecap="round" stroke-linejoin="round" stroke-width="5"/>
    <path id="Path_35" data-name="Path 35" d="M9430.682,974.836v8.546H9539.43v-8.546h-8.273v-9.048h-92.073v9.048Z" transform="translate(-9000 1)" fill="none" stroke="#b03e30" stroke-linecap="round" stroke-linejoin="round" stroke-width="5"/>
    <g id="Rectangle_30" data-name="Rectangle 30" transform="translate(449 937)" fill="#fff" stroke="#b03e30" stroke-width="5">
      <rect width="72" height="57" stroke="none"/>
      <rect x="2.5" y="2.5" width="67" height="52" fill="none"/>
    </g>
    <path id="Path_36" data-name="Path 36" d="M9338.027,968.852l7.239,7.534,17.92-19.039" transform="translate(-8865.233 0.174)" fill="none" stroke="#b03e30" stroke-linecap="round" stroke-linejoin="round" stroke-width="5"/>
    <g id="Ellipse_23" data-name="Ellipse 23" transform="translate(459 898)" fill="none" stroke="#b03e30" stroke-width="2">
      <circle cx="2" cy="2" r="2" stroke="none"/>
      <circle cx="2" cy="2" r="1" fill="none"/>
    </g>
    <g id="Ellipse_24" data-name="Ellipse 24" transform="translate(465 898)" fill="none" stroke="#b03e30" stroke-width="2">
      <circle cx="2" cy="2" r="2" stroke="none"/>
      <circle cx="2" cy="2" r="1" fill="none"/>
    </g>
    <g id="Ellipse_25" data-name="Ellipse 25" transform="translate(471 898)" fill="none" stroke="#b03e30" stroke-width="2">
      <circle cx="2" cy="2" r="2" stroke="none"/>
      <circle cx="2" cy="2" r="1" fill="none"/>
    </g>
    <g id="Ellipse_26" data-name="Ellipse 26" transform="translate(477 898)" fill="none" stroke="#b03e30" stroke-width="2">
      <circle cx="2" cy="2" r="2" stroke="none"/>
      <circle cx="2" cy="2" r="1" fill="none"/>
    </g>
    <g id="Ellipse_27" data-name="Ellipse 27" transform="translate(483 898)" fill="none" stroke="#b03e30" stroke-width="2">
      <circle cx="2" cy="2" r="2" stroke="none"/>
      <circle cx="2" cy="2" r="1" fill="none"/>
    </g>
    <g id="Ellipse_28" data-name="Ellipse 28" transform="translate(489 898)" fill="none" stroke="#b03e30" stroke-width="2">
      <circle cx="2" cy="2" r="2" stroke="none"/>
      <circle cx="2" cy="2" r="1" fill="none"/>
    </g>
    <g id="Ellipse_29" data-name="Ellipse 29" transform="translate(495 898)" fill="none" stroke="#b03e30" stroke-width="2">
      <circle cx="2" cy="2" r="2" stroke="none"/>
      <circle cx="2" cy="2" r="1" fill="none"/>
    </g>
    <g id="Ellipse_30" data-name="Ellipse 30" transform="translate(501 898)" fill="none" stroke="#b03e30" stroke-width="2">
      <circle cx="2" cy="2" r="2" stroke="none"/>
      <circle cx="2" cy="2" r="1" fill="none"/>
    </g>
    <g id="Ellipse_31" data-name="Ellipse 31" transform="translate(507 898)" fill="none" stroke="#b03e30" stroke-width="2">
      <circle cx="2" cy="2" r="2" stroke="none"/>
      <circle cx="2" cy="2" r="1" fill="none"/>
    </g>
    <g id="Ellipse_32" data-name="Ellipse 32" transform="translate(522 973)" fill="none" stroke="#b03e30" stroke-width="2">
      <circle cx="2" cy="2" r="2" stroke="none"/>
      <circle cx="2" cy="2" r="1" fill="none"/>
    </g>
    <g id="Ellipse_33" data-name="Ellipse 33" transform="translate(444 973)" fill="none" stroke="#b03e30" stroke-width="2">
      <circle cx="2" cy="2" r="2" stroke="none"/>
      <circle cx="2" cy="2" r="1" fill="none"/>
    </g>
  </g>
</svg>
