<svg xmlns="http://www.w3.org/2000/svg" width="958.4" height="594.4" viewBox="0 0 958.4 594.4">
  <path id="Path_38" data-name="Path 38" d="M-473.2-300c0,172.8,58.4,297.6,224.8,297.6S-23.6-127.2-23.6-300c0-171.2-58.4-296-224.8-296S-473.2-471.2-473.2-300Zm315.2,0c0,92.8-9.6,169.6-90.4,169.6s-90.4-76.8-90.4-169.6c0-89.6,9.6-168,90.4-168S-158-389.6-158-300ZM83.6-8H485.2V-119.2h-216C362-190.4,476.4-292.8,476.4-420.8c0-98.4-59.2-176-192-176C178-596.8,86-536,82-394.4H214c0-55.2,24-87.2,64.8-87.2,41.6,0,60.8,27.2,60.8,69.6,0,98.4-132,200-256,302.4Z" transform="translate(473.2 596.8)" fill="#f8f8f8"/>
</svg>
