<svg xmlns="http://www.w3.org/2000/svg" width="965.6" height="602.4" viewBox="0 0 965.6 602.4">
  <path id="Path_39" data-name="Path 39" d="M-486.8-300C-486.8-127.2-428.4-2.4-262-2.4S-37.2-127.2-37.2-300c0-171.2-58.4-296-224.8-296S-486.8-471.2-486.8-300Zm315.2,0c0,92.8-9.6,169.6-90.4,169.6s-90.4-76.8-90.4-169.6c0-89.6,9.6-168,90.4-168S-171.6-389.6-171.6-300ZM79.6-419.2H213.2c2.4-32,18.4-64,62.4-64,36.8,0,60,21.6,60,60.8,0,52.8-44.8,64-91.2,64H218.8v111.2h25.6c71.2,0,102.4,20.8,102.4,72.8,0,38.4-23.2,65.6-65.6,65.6-50.4,0-75.2-30.4-76-76H72.4c4,132,92,189.6,213.6,189.6C408.4,4.8,478.8-65.6,478.8-164c0-76.8-40-121.6-98.4-140.8V-308c40-13.6,88-54.4,88-131.2,0-88-66.4-158.4-189.6-158.4C159.6-597.6,84.4-534.4,79.6-419.2Z" transform="translate(486.8 597.6)" fill="#fff"/>
</svg>
