<svg xmlns="http://www.w3.org/2000/svg" width="289.228" height="47.862" viewBox="0 0 289.228 47.862">
  <g id="Group_46" data-name="Group 46" transform="translate(0 -80)">
    <g id="Group_45" data-name="Group 45">
      <path id="Exclusion_4" data-name="Exclusion 4" d="M11.68,0A11.766,11.766,0,0,0,9.326.237,11.616,11.616,0,0,0,5.15,1.995,11.714,11.714,0,0,0,.918,7.134,11.622,11.622,0,0,0,.237,9.326a11.794,11.794,0,0,0,0,4.708A11.616,11.616,0,0,0,1.995,18.21a11.714,11.714,0,0,0,5.139,4.232,11.622,11.622,0,0,0,2.192.681,11.775,11.775,0,0,0,5.541-.2,11.621,11.621,0,0,0,2.851-1.24l13.994-7.886a2.476,2.476,0,0,0-.036-4.374L17.521,1.563A11.627,11.627,0,0,0,11.68,0Zm-.19,16.123a4.507,4.507,0,1,1,2.378-8.336L20.7,11.65l-6.836,3.8v0A4.5,4.5,0,0,1,11.489,16.123Z" transform="translate(41.768 103.36) rotate(180)" fill="#b03e30"/>
      <path id="Exclusion_3" data-name="Exclusion 3" d="M11.68,23.36a11.766,11.766,0,0,1-2.354-.237A11.616,11.616,0,0,1,5.15,21.365,11.714,11.714,0,0,1,.918,16.226a11.622,11.622,0,0,1-.681-2.192,11.794,11.794,0,0,1,0-4.708A11.616,11.616,0,0,1,1.995,5.15,11.714,11.714,0,0,1,7.134.918,11.623,11.623,0,0,1,9.326.237a11.775,11.775,0,0,1,5.541.2,11.62,11.62,0,0,1,2.851,1.24L31.712,9.566a2.476,2.476,0,0,1-.036,4.374L17.521,21.8A11.626,11.626,0,0,1,11.68,23.36Zm-.19-16.123a4.507,4.507,0,1,0,2.378,8.336L20.7,11.71l-6.836-3.8v0A4.5,4.5,0,0,0,11.489,7.236Z" transform="translate(0 88.125)" fill="#631e16"/>
      <path id="Exclusion_2" data-name="Exclusion 2" d="M11.68,0A11.766,11.766,0,0,0,9.326.237,11.616,11.616,0,0,0,5.15,1.995,11.714,11.714,0,0,0,.918,7.134,11.622,11.622,0,0,0,.237,9.326a11.794,11.794,0,0,0,0,4.708A11.616,11.616,0,0,0,1.995,18.21a11.714,11.714,0,0,0,5.139,4.232,11.622,11.622,0,0,0,2.192.681,11.775,11.775,0,0,0,5.541-.2,11.621,11.621,0,0,0,2.851-1.24l13.994-7.886a2.476,2.476,0,0,0-.036-4.374L17.521,1.563A11.627,11.627,0,0,0,11.68,0Zm-.19,16.123a4.507,4.507,0,1,1,2.378-8.336L20.7,11.65l-6.836,3.8v0A4.5,4.5,0,0,1,11.489,16.123Z" transform="translate(41.768 119.61) rotate(180)" fill="#332e2a"/>
      <path id="Exclusion_1" data-name="Exclusion 1" d="M11.68,0A11.766,11.766,0,0,0,9.326.237,11.616,11.616,0,0,0,5.15,1.995,11.714,11.714,0,0,0,.918,7.134,11.622,11.622,0,0,0,.237,9.326a11.794,11.794,0,0,0,0,4.708A11.616,11.616,0,0,0,1.995,18.21a11.714,11.714,0,0,0,5.139,4.232,11.622,11.622,0,0,0,2.192.681,11.775,11.775,0,0,0,5.541-.2,11.621,11.621,0,0,0,2.851-1.24l13.994-7.886a2.476,2.476,0,0,0-.036-4.374L17.521,1.563A11.627,11.627,0,0,0,11.68,0Zm-.19,16.123a4.507,4.507,0,1,1,2.378-8.336L20.7,11.65l-6.836,3.8v0A4.5,4.5,0,0,1,11.489,16.123Z" transform="translate(0 104.502)" fill="#a89f9f"/>
    </g>
    <path id="Path_20" data-name="Path 20" d="M-51.222-13.335V-20.44h3.885c2.765,0,3.99,1.33,3.99,3.57,0,2.17-1.225,3.535-3.99,3.535Zm12.915-3.535c0-4.235-2.94-7.56-8.82-7.56h-8.995V0h4.9V-9.38h4.1C-40.827-9.38-38.307-13.16-38.307-16.87Zm28.7,4.585A12.2,12.2,0,0,0-22.1-24.78a12.27,12.27,0,0,0-12.53,12.495A12.278,12.278,0,0,0-22.1.245,12.229,12.229,0,0,0-9.607-12.285Zm-19.985,0c0-4.97,3.045-8.085,7.49-8.085,4.41,0,7.455,3.115,7.455,8.085S-17.692-4.13-22.1-4.13C-26.547-4.13-29.592-7.315-29.592-12.285ZM-4.567-24.43V0H8.383V-3.885H.333V-24.43ZM19.162-8.505V0h4.9V-8.505l8.26-15.925h-5.46L21.647-13.265,16.4-24.43h-5.53Zm17.325-.84c0,6.44,4.41,9.59,9.765,9.59s9.975-3.15,9.975-9.59V-24.43H51.293V-9.31c0,3.36-1.82,5.11-4.97,5.11-3.115,0-4.935-1.75-4.935-5.11V-24.43h-4.9Z" transform="translate(233 116)" fill="#332e2a"/>
    <path id="Path_21" data-name="Path 21" d="M-27.09-24.43h-8.54V0h8.54c7.805,0,12.88-4.795,12.88-12.18C-14.21-19.6-19.285-24.43-27.09-24.43ZM-30.73-4.165V-20.3h3.465c5.145,0,8.05,3.045,8.05,8.12s-2.905,8.015-8.05,8.015ZM7.945-7.07c0-8.61-12.53-5.88-12.53-10.78,0-1.995,1.435-2.94,3.36-2.87,2.1.035,3.395,1.3,3.5,2.905h5.39c-.315-4.41-3.745-6.965-8.75-6.965-5.04,0-8.61,2.66-8.61,7.07C-9.73-8.855,2.87-12.04,2.87-6.755,2.87-5.005,1.505-3.78-.8-3.78a3.354,3.354,0,0,1-3.71-3.255h-5.25C-9.695-2.415-5.775.245-.7.245,4.865.245,7.945-3.22,7.945-7.07Zm4.445-5.18A12.045,12.045,0,0,0,24.78.21c5.425,0,9.835-2.87,11.48-7.91H30.625a6.134,6.134,0,0,1-5.88,3.535c-4.27,0-7.315-3.15-7.315-8.085,0-4.97,3.045-8.085,7.315-8.085a6.16,6.16,0,0,1,5.88,3.5H36.26c-1.645-5-6.055-7.91-11.48-7.91A12.074,12.074,0,0,0,12.39-12.25Z" transform="translate(94 116)" fill="#332e2a"/>
    <path id="Path_22" data-name="Path 22" d="M172,14l20.624,20.624m0-20.624L172,34.624" transform="translate(-27.885 79.986)" fill="none" stroke="#332e2a" stroke-linecap="round" stroke-width="2"/>
  </g>
</svg>
